<?xml version="1.0" encoding="utf-8"?>
<!-- Generator: Adobe Illustrator 17.0.0, SVG Export Plug-In . SVG Version: 6.00 Build 0)  -->
<!DOCTYPE svg PUBLIC "-//W3C//DTD SVG 1.1//EN" "http://www.w3.org/Graphics/SVG/1.1/DTD/svg11.dtd">
<svg version="1.1" id="Layer_1" xmlns="http://www.w3.org/2000/svg" xmlns:xlink="http://www.w3.org/1999/xlink" x="0px" y="0px"
	 width="281.967px" height="163.121px" viewBox="0 0 281.967 163.121" enable-background="new 0 0 281.967 163.121"
	 xml:space="preserve">
<g>
	<path fill="#F47730" d="M78.852,141.405c-0.153-0.677-0.555-1.562-1.061-2.421c-0.175-0.266-0.356-0.552-0.541-0.853
		c-0.564-0.817-1.184-1.529-1.71-1.885c-1.324-0.898-2.136-3.209-2.031-3.635c0.106-0.429,0.913-1.768-1.173-3.906
		c-2.086-2.141-1.57-5.952-1.57-5.952l0.006-0.005c-0.467,0.276-1.159,0.552-2.167,0.552c-0.997,0.005-2.366,1.639-4.244,2.098
		c-0.855-1.251-2.399,0.128-3.101,0.629c-0.89,0.632-2.327-0.849-3.169-1.18c-1.905-0.745-3.164,1.582-4.447,0.694
		c-2.823-1.95-3.264-0.391-4.974-0.765c-1.389-0.303-1.622-0.599-2.422-1.241c-1.6-1.138-2.487-1.01-3.259-0.767
		c-3.36-1.95-5.109-7.431-5.109-7.431c-0.399,2.187,0.08,3.771,0.722,5.255c-2.046-2.005-3.216-3.951-3.515-7.014
		c0,0-1.618,2.161,0.634,6.204c-1.852-2.143-3.456-4.685-3.777-7.934c0,0-1.499,2.489,0.361,5.535
		c-0.843-0.536-1.344-1.173-1.713-1.624c-5.379-6.604-6.399-24.411-6.399-25.464c-0.062-0.609-0.093-1.296-0.096-2.043
		c-0.022-7.215,2.725-20.016,9.469-23.052c0.111-2.976,3.787-4.841,5.264-5.706c-3.209,0.241-6.174-3.801-6.379-4.094
		c-0.023-0.01-0.033-0.03-0.043-0.05c-0.013,0.005-0.021,0-0.02-0.04c-0.875-1.214-1.304-2.237-2.102-3.33
		c-1.027-1.396-2.159-2.01-3.08-2.048c-1.279,0-2.219,0.903-3.775,0.903c-1.167,0-1.759-1.354-2.341-2.008
		c-0.304-0.404-0.594-0.524-1.074-0.552c-0.814-0.05-1.172-1.258-1.123-2.163v-0.003c0.049-0.91,0.565-2.673,1.014-3.332
		c0.93-1.374,1.68-0.923,2.537-1.81c0.378-0.403,0.324-0.599,0.875-0.943c1.123-0.704,2.611-1.065,5.78-1.095
		c2.746-0.025,9.929,0.286,15.901,0.945l0.927,0.078c0.015-3.199,1.853-4.132,1.853-4.132s0.584-0.581,1.371-0.368
		c1.354,0.406,2.008,0.368,2.008,0.368c0.068,0,0.123,0,0.173,0c0.033,0,0.06,0,0.085,0c0.767,0,1.003,0.467,1.419,0.311
		c0.417-0.153,0.92-0.401,1.495-0.133c0.574,0.268,0.689,0.359,1.313,0.253c0.722-0.12,0.805-0.681,1.765,0.121
		c0.562,0.469,0.442,1.203,1.015,0.852c0.565-0.346,1.091,0.108,1.226,0.747c0.005,0.025,0.021,0.043,0.026,0.068
		c0.125-0.058,0.28-0.166,0.526-0.113c1.479,0.08,2.64,0.406,3.124,0.95c-1.725,0.111-1.836,1.362-1.836,1.362
		c0.783-0.098,1.5-0.096,1.906,0.215c-1.018,0.474-1.158,1.078-1.158,1.078c0.065,0.441,0.679,0.389,1.007,0.715
		c0,0.015,0.622,0.789,0.747,1.095c0.176,0.421,0.321,1.793,0.321,1.793c0.93,0.624,0.855,1.689,1.444,2.259
		c1.204,1.163,1.164,2.915,1.164,2.915c0.17,0.299,0.193,0.604,0.341,1.186c1.363,0.045,2.487,0.707,3.003,1.963
		c0.156,0.386,0.241,0.775,0.261,1.158c0.085,1.66-0.953,2.738-3.069,3.442c0.697,1.048,1.264,3.234,1.274,4.984
		c-0.431-1.125-0.96-2.381-2.597-2.933c0,0,2.221,2.923,1.845,4.849c-0.394-0.459-1.189-2.071-2.006-2.334
		c0,0,0.893,1.965,1.076,3.016c0.047,0.283,0.308,0.965,0.04,1.684c-0.402,1.068-0.524,1.013-0.519,1.64
		c0,0.687,0.2,1.504-0.762,2.627c-0.913,1.066-0.958,1.391-0.908,2.354c0.176,0.524,0.371,0.697,0.642,1.123
		c0.958,1.52,1.705,2.502,3.008,2.48c1.103,0,2.161-2.244,3.084-4.844l0.203-0.581c0.705-2.059,1.321-4.247,1.808-5.671
		c1.163-3.397,3.173-7.682,5.144-10.665c0.456-0.689,1.279-1.7,1.434-2.667c0-0.088,0.02-0.163,0.05-0.231
		c0.206-0.938,0.747-4.019,1.008-4.625c0.002-0.003-0.316-1.329-0.221-2.334c0.048-0.487,1.028-1.886,0.567-2.848
		c-0.238-0.497-0.389-1.201-0.095-1.635c-0.051-0.491-0.532-0.511-1.459-0.747c0,0,1.168-1.056,2.291-0.873
		c-0.391-0.611-0.772-0.731-1.89-0.912c0,0,0.967-1.249,2.105-0.787c0.028-0.607,0.845-0.958,1.016-1.124
		c0.281-0.145,0.484-0.265,0.569-0.295c0.559-0.203,0.732-0.477,0.797-0.885c0.1-0.637,0.399-0.66,0.9-0.772
		c0.304-0.068,0.875-0.183,1.091-0.264c0,0,0.165-0.025,0.356-0.408c0.458-0.534,1.176-0.123,1.885,0.168
		c1.005-0.181,0.702-0.549,1.244-0.752c0.682-0.259,0.905,0.326,1.922,0.426c0.409,0.04,0.545-0.153,1.211-0.359
		c0.143-0.042,0,0,0.143-0.042c0.639-0.191,0.78,0.203,1.622,0.844c0.597,0.031,1.309-0.308,2.713,0.053c0,0-1.67,1.163-1.474,1.652
		c0,0,1.714-0.433,2.838,0.153c0,0-1.078-0.115-1.459,1.083c-0.319,1.001,0.044,0.968,0.095,1.151
		c0.541,0.444,1.025,1.908,1.218,2.206c0.125,0.201,0.311,1.035,0.429,1.216c0.784,1.226,1.246,1.943,1.594,2.527
		c0.82,1.364,1.72,2.274,2.382,4.016c0.103,0.276,0.564,1.048,0.624,1.259c1.823,6.641,2.976,8.393,5.736,7.125
		c1.85-0.85,1.103-3.445,1.845-4.372c0.309-0.382,0.341-1.171,0.341-2.076c0-0.128,0-0.261,0-0.394l-0.002-0.175
		c-0.003-0.143-0.003-0.286-0.003-0.429c0.005-1.008,0.063-2.031,0.457-2.733c0.671-1.208,0.622-2.401,0.844-3.319
		c0.028-0.349,0.133-0.797,0.189-1.178c0.105-0.672,0.002-0.218,0.09-0.782c0.025-0.163,0.045-0.309,0.08-0.464
		c0.14-0.589-0.532-1.091-0.221-1.557c-0.06-0.732-1.063-0.637-1.063-0.637c0.071-0.541,1.294-0.958,1.773-1.183
		c0.002-0.033,0.002-0.065,0.002-0.1c-0.283-0.728-1.887-0.567-1.887-0.567c0.962-0.802,1.747-0.672,1.747-0.672
		s0.298,0.043,0.394-0.777c0.027-0.093,0.055-0.181,0.087-0.266c0.003-0.005,0.005-0.01,0.005-0.017v0.005
		c0.171-0.429,0.417-0.745,0.795-0.828c1.045-0.228,0.817,0.527,1.928,0.414c1.349-0.141,0.401-1.522,2.246-0.802
		c1.309,0.509,1.068-1.662,3.102-0.216c0.07,0.05,0.125,0.1,0.187,0.151v-0.01c0,0,0,0.007,0.003,0.012
		c0.138,0.113,0.26,0.228,0.366,0.338c0.093,0.036,0.208,0.066,0.354,0.073c0.641,0.04,2.03-0.113,2.103,0.82
		c0.078,1.008,1.226,1.158,1.226,1.158c0.414-0.07,1.003,0.855,1.08,1.432c0.033,0.25,0.115,0.93,0.093,1.226
		c-0.03,0.416-0.01,0.91,0.1,1.341c0.622,1.559,2.064,1.439,2.884,3.407c0.077,0.183,0.373,1.09,0.426,1.211
		c1.045,2.469,4.041,6.262,7.789,7.212C131.225,22.19,103.668,0,70.927,0C31.756,0,0,31.754,0,70.928
		c0,39.165,31.756,70.919,70.927,70.919C73.607,141.847,76.25,141.694,78.852,141.405L78.852,141.405z"/>
	<polygon fill="#00AAAD" points="103.262,128.078 90.737,128.078 90.737,119.702 126.69,119.702 124.163,128.078 113.19,128.078 
		113.19,162.469 103.262,162.469 103.262,128.078 	"/>
	<path fill="#00AAAD" d="M120.596,147.031c0-9.356,6.623-16.035,16.155-16.035c9.541,0,16.16,6.679,16.16,16.035
		c0,9.346-6.619,16.09-16.16,16.09C127.219,163.121,120.596,156.377,120.596,147.031L120.596,147.031z M142.923,147.031
		c0-4.738-1.822-8.308-6.172-8.308c-4.347,0-6.167,3.57-6.167,8.308c0,4.733,1.82,8.368,6.167,8.368
		C141.101,155.399,142.923,151.764,142.923,147.031L142.923,147.031z"/>
	<polygon fill="#00AAAD" points="188.801,131.779 212.879,131.779 210.211,140.405 198.599,140.405 198.599,162.469 
		188.801,162.469 188.801,131.779 	"/>
	<path fill="#00AAAD" d="M211.891,147.031c0-9.356,6.624-16.035,16.16-16.035c9.537,0,16.16,6.679,16.16,16.035
		c0,9.346-6.623,16.09-16.16,16.09C218.515,163.121,211.891,156.377,211.891,147.031L211.891,147.031z M234.213,147.031
		c0-4.738-1.815-8.308-6.162-8.308c-4.352,0-6.162,3.57-6.162,8.308c0,4.733,1.81,8.368,6.162,8.368
		C232.398,155.399,234.213,151.764,234.213,147.031L234.213,147.031z"/>
	<path fill="#00AAAD" d="M247.365,131.779h9.547v10.97c0,2.527-0.131,5.195-0.326,6.874h0.195c0.587-1.098,2.207-3.896,3.896-6.357
		l7.918-11.487h9.601v30.69h-9.536v-10.965c0-2.528,0.13-5.187,0.321-6.88h-0.191c-0.587,1.103-2.201,3.901-3.896,6.368
		l-7.917,11.477h-9.612V131.779L247.365,131.779z M253.888,120.186h6.002c0,2.191,0.732,3.996,3.119,3.996
		c2.392,0,3.124-1.805,3.124-3.996h6.002c0.195,5.41-3.019,9.171-9.126,9.171C256.912,129.357,253.688,125.596,253.888,120.186
		L253.888,120.186z"/>
	<path fill="#00AAAD" d="M151.587,162.226l2.698-8.14c0.456,0.128,0.978,0.128,1.108,0.128c1.168,0,2.201,0.062,3.104-1.246
		c2.106-3.064,4.236-10.52,5.6-21.245h21.586v30.744h-9.818v-22.105h-4.547c-0.978,8.324-2.994,15.022-6.248,18.856
		c-2.011,2.401-4.678,3.705-8.439,3.705C154.445,162.923,152.65,162.492,151.587,162.226L151.587,162.226z"/>
	<path fill="#00AAAD" d="M154.4,78.868c0-12.969,9.026-21.929,22.062-21.929c13.046,0,22.071,8.96,22.071,21.929
		c0,12.979-9.025,21.936-22.071,21.936C163.426,100.804,154.4,91.847,154.4,78.868L154.4,78.868z M187.949,78.868
		c0-9.075-4.733-13.686-11.487-13.686c-6.749,0-11.482,4.611-11.482,13.686c0,9.088,4.733,13.693,11.482,13.693
		C183.216,92.561,187.949,87.956,187.949,78.868L187.949,78.868z"/>
	<path fill="#00AAAD" d="M202.234,69.467h9.798v10.439h5.71c1.695-6.744,6.95-11.216,14.541-11.216
		c9.281,0,15.057,6.678,15.057,16.024c0,9.339-5.776,16.09-15.057,16.09c-7.982,0-13.367-4.931-14.736-12.261h-5.515v11.607h-9.798
		V69.467L202.234,69.467z M237.472,84.714c0-4.745-0.847-8.308-5.189-8.308c-4.347,0-5.195,3.563-5.195,8.308
		c0,4.734,1.104,8.366,5.195,8.366C236.369,93.08,237.472,89.448,237.472,84.714L237.472,84.714z"/>
	<path fill="#00AAAD" d="M270.029,100.15c-5.396,13.829-10.716,15.383-16.682,15.383c-2.668,0-5.45-0.587-7.852-1.685l2.462-7.531
		c1.624,0.848,3.174,1.364,4.868,1.364c3.049,0,5.45-1.75,7.787-8.042l-14.084-30.172h10.384l8.178,19.459h0.13l6.684-19.459h10.063
		L270.029,100.15L270.029,100.15z"/>
</g>
</svg>
