<svg width="1440" height="394" viewBox="0 0 1440 394" fill="none" xmlns="http://www.w3.org/2000/svg">
<line y1="-2" x2="355.636" y2="-2" transform="matrix(0.898814 -0.43833 0.552909 0.833241 97.6179 268.288)" stroke="#57679A" stroke-width="4" stroke-dasharray="24 24"/>
<line y1="-2" x2="303.984" y2="-2" transform="matrix(0.657998 0.75302 -0.841432 0.540362 417.269 112.402)" stroke="#7B7B7B" stroke-width="4" stroke-dasharray="24 24"/>
<line y1="-2" x2="335.144" y2="-2" transform="matrix(0.990894 -0.134643 0.181807 0.983334 617.29 342.949)" stroke="#FFB950" stroke-width="4" stroke-dasharray="24 24"/>
<line y1="-2" x2="190.94" y2="-2" transform="matrix(0.20049 0.979696 -0.988878 0.148728 911.1 110.761)" stroke="#649CCF" stroke-width="4" stroke-dasharray="24 24"/>
<line y1="-2" x2="427.187" y2="-2" transform="matrix(0.999186 0.0403325 -0.0548412 0.998495 924.499 106.659)" stroke="#FB7777" stroke-width="4" stroke-dasharray="24 24"/>
<ellipse rx="68.4779" ry="62.6894" transform="matrix(0.994771 0.102128 -0.138349 0.990383 97.2557 268.499)" fill="#E8C3BE"/>
<mask id="mask0_2_129" style="mask-type:alpha" maskUnits="userSpaceOnUse" x="12" y="169" width="197" height="83">
<rect width="187.84" height="63.4328" transform="matrix(0.994771 0.102128 -0.138349 0.990383 21.1855 169.833)" fill="#C4C4C4"/>
</mask>
<g mask="url(#mask0_2_129)">
<path d="M97.3134 315.4C88.3286 315.005 79.7262 313.828 70.914 312.784C60.8711 311.753 48.5671 312.91 42.1584 304.162C37.7272 298.111 39.5208 289.807 43.1596 283.231C45.7237 278.6 49.2183 273.956 48.8771 268.813C48.6182 264.918 46.1633 261.455 45.3926 257.627C44.6411 253.896 45.6122 249.525 48.2134 246.466C50.5878 243.663 53.9499 242.43 55.1335 238.688C55.781 236.634 55.4397 234.463 55.3602 232.334C54.7112 214.888 71.6048 204.455 87.6063 198.804C97.4209 195.332 108.748 194.443 118.142 199.181C118.826 199.587 119.583 199.881 120.38 200.053C121.124 200.101 121.873 200.085 122.615 200.004C135.179 199.611 148.35 221.295 143.527 231.11C142.063 234.082 139.991 237.105 140.472 240.311C141.183 245.033 147.187 248.119 147.318 252.892C147.462 258.039 140.62 261.932 141.144 267.059C141.454 270.078 144.26 272.317 145.866 274.976C147.068 276.996 147.594 279.299 147.382 281.604C147.259 283.028 146.851 284.424 146.178 285.722C144.165 289.573 139.802 292.814 140.187 297.055C140.643 302.08 147.336 304.53 146.195 310.078C145.579 313.042 142.386 315.059 139.196 315.881C136.909 316.409 134.579 316.759 132.233 316.929C130.494 317.099 129.045 316.636 127.333 316.62C122.565 316.574 117.829 316.769 113.056 316.528C107.832 316.231 102.579 315.632 97.3134 315.4Z" fill="url(#paint0_linear_2_129)"/>
<path d="M78.5945 247.205C77.9508 251.814 73.3304 255.128 68.2745 254.609C63.2187 254.09 59.6419 249.934 60.2856 245.326C60.9294 240.718 65.5498 237.403 70.6056 237.922C75.6615 238.441 79.2382 242.597 78.5945 247.205Z" fill="#E18477"/>
<path d="M81.9626 246.556C81.3189 251.164 76.6985 254.478 71.6426 253.959C66.5868 253.44 63.01 249.284 63.6537 244.676C64.2974 240.068 68.9179 236.753 73.9737 237.272C79.0296 237.791 82.6063 241.947 81.9626 246.556Z" fill="#A76962"/>
<path d="M133.404 240.152C136.936 260.772 120.133 283.541 111.873 282.693C100.564 281.532 74.2506 270.482 70.7238 249.862C67.197 229.243 78.3787 210.353 95.6857 207.674C112.993 204.995 129.866 219.537 133.404 240.152Z" fill="#E18477"/>
<path d="M97.6803 240.005C100.965 240.342 100.322 244.946 97.0345 244.628L96.8837 244.612C93.5988 244.275 94.2413 239.676 97.5295 239.989L97.6803 240.005Z" fill="#00214E"/>
<path d="M124.744 242.091C127.797 242.404 127.2 246.674 124.144 246.386L124.009 246.372C120.961 246.059 121.558 241.784 124.609 242.077L124.744 242.091Z" fill="#00214E"/>
<path d="M116.71 213.89C116.627 214.016 116.543 214.147 116.454 214.277C114.453 217.152 111.985 219.738 109.134 221.944C103.453 226.439 96.6666 229.705 89.7406 232.284C85.7353 233.842 81.6309 235.174 77.4511 236.27C71.4369 237.758 66.4403 238.296 66.2636 238.427C66.578 232.54 64.7877 219.94 83.8285 209.738C99.178 201.521 119.368 204.36 119.368 204.36C118.796 207.991 118.748 210.714 116.71 213.89Z" fill="url(#paint1_linear_2_129)"/>
<path fill-rule="evenodd" clip-rule="evenodd" d="M113.1 239.03C113.1 239.026 113.102 238.992 113.117 238.955L113.627 239.118C113.636 239.096 113.639 239.077 113.64 239.073C113.641 239.065 113.641 239.06 113.641 239.057C113.642 239.055 113.642 239.053 113.642 239.053C113.642 239.053 113.642 239.053 113.642 239.054C113.642 239.06 113.642 239.071 113.643 239.089C113.645 239.125 113.648 239.178 113.654 239.249C113.665 239.389 113.684 239.591 113.709 239.847C113.759 240.359 113.835 241.081 113.927 241.944C114.112 243.67 114.365 245.956 114.619 248.237C114.874 250.518 115.131 252.794 115.325 254.499C115.421 255.352 115.502 256.062 115.558 256.559L115.647 257.34C115.647 257.34 115.647 257.34 115.377 257.369L115.647 257.34L115.683 257.649L108.612 256.923L108.68 256.433L115.072 257.089L115.018 256.617C114.962 256.12 114.881 255.41 114.785 254.557C114.591 252.851 114.334 250.575 114.079 248.294C113.824 246.013 113.572 243.726 113.387 241.999C113.294 241.136 113.219 240.412 113.168 239.898C113.143 239.641 113.124 239.436 113.113 239.292C113.107 239.22 113.103 239.162 113.101 239.119C113.099 239.098 113.099 239.078 113.099 239.061C113.099 239.053 113.099 239.041 113.1 239.03C113.1 239.03 113.1 239.03 113.1 239.03Z" fill="#00214E"/>
<path fill-rule="evenodd" clip-rule="evenodd" d="M132.587 235.095C128.702 233.613 124.32 233.542 120.334 234.895L120.151 234.433C124.267 233.035 128.791 233.109 132.803 234.639L132.587 235.095Z" fill="#00214E"/>
<path fill-rule="evenodd" clip-rule="evenodd" d="M107.06 234.883C102.021 232.235 95.9139 231.788 90.404 233.664L90.2202 233.202C95.8824 231.274 102.158 231.734 107.336 234.455L107.06 234.883Z" fill="#00214E"/>
<path d="M77.5368 213.047C78.2253 211.869 79.8257 211.407 81.1098 212.016L89.8842 216.18C91.1683 216.79 91.65 218.24 90.9615 219.417V219.417C90.2731 220.595 88.6727 221.057 87.3886 220.448L78.6142 216.284C77.33 215.675 76.8484 214.224 77.5368 213.047V213.047Z" fill="#FF2609"/>
<path d="M72.9364 219.959C73.6249 218.782 75.2252 218.319 76.5094 218.929L85.2838 223.092C86.5679 223.702 87.0496 225.152 86.3611 226.33V226.33C85.6727 227.507 84.0723 227.97 82.7882 227.36L74.0138 223.196C72.7296 222.587 72.248 221.136 72.9364 219.959V219.959Z" fill="#F2D4CF"/>
</g>
<mask id="mask1_2_129" style="mask-type:alpha" maskUnits="userSpaceOnUse" x="28" y="206" width="138" height="125">
<ellipse rx="68.4779" ry="62.6894" transform="matrix(0.994771 0.102128 -0.138349 0.990383 97.2557 268.499)" fill="#C4C4C4"/>
</mask>
<g mask="url(#mask1_2_129)">
<path d="M97.3134 315.4C88.3286 315.005 79.7262 313.828 70.914 312.784C60.8711 311.753 48.5671 312.91 42.1584 304.162C37.7272 298.111 39.5208 289.807 43.1596 283.231C45.7237 278.6 49.2183 273.956 48.8771 268.813C48.6182 264.918 46.1633 261.455 45.3926 257.627C44.6411 253.896 45.6122 249.525 48.2134 246.466C50.5878 243.663 53.9499 242.43 55.1335 238.688C55.781 236.634 55.4397 234.463 55.3602 232.334C54.7112 214.888 71.6048 204.455 87.6063 198.804C97.4209 195.332 108.748 194.443 118.142 199.181C118.826 199.587 119.583 199.881 120.38 200.053C121.124 200.101 121.873 200.085 122.615 200.004C135.179 199.611 148.35 221.295 143.527 231.11C142.063 234.082 139.991 237.105 140.472 240.311C141.183 245.033 147.187 248.119 147.318 252.892C147.462 258.039 140.62 261.932 141.144 267.059C141.454 270.078 144.26 272.317 145.866 274.976C147.068 276.996 147.594 279.299 147.382 281.604C147.259 283.028 146.851 284.424 146.178 285.722C144.165 289.573 139.802 292.814 140.187 297.055C140.643 302.08 147.336 304.53 146.195 310.078C145.579 313.042 142.386 315.059 139.196 315.881C136.909 316.409 134.579 316.759 132.233 316.929C130.494 317.099 129.045 316.636 127.333 316.62C122.565 316.574 117.829 316.769 113.056 316.528C107.832 316.231 102.579 315.632 97.3134 315.4Z" fill="url(#paint2_linear_2_129)"/>
<path d="M155.797 318.566C116.271 340.133 66.0889 334.776 33.9069 305.555L61.6741 297.05C62.5244 296.786 63.3598 296.483 64.177 296.142L64.8281 295.86C65.0606 295.76 65.2884 295.653 65.517 295.543C69.1132 293.803 72.2098 291.309 74.5459 288.27C77.2176 284.786 78.5002 280.765 79.1153 276.597C79.5074 273.789 79.7327 270.965 80.0932 268.149C80.2892 266.59 80.4886 265.032 80.6914 263.476L81.6998 264.078L84.3156 265.685L100.274 269.887L116.668 274.209L114.98 289.967L114.145 297.782L120.002 300.708L124.599 302.992L155.797 318.566Z" fill="#E18477"/>
<path d="M115.521 285.9C113.941 286.574 112.503 286.82 111.308 286.578C103.453 284.98 88.7117 277.696 80.4032 266.165C80.475 265.651 80.5362 265.135 80.5869 264.615C80.7825 263.059 80.9818 261.501 81.1851 259.942L82.1935 260.544L84.8092 262.151L100.767 266.354L117.162 270.675L115.521 285.9Z" fill="#A76962"/>
<path d="M78.5945 247.205C77.9508 251.814 73.3304 255.128 68.2746 254.609C63.2187 254.09 59.6419 249.934 60.2857 245.326C60.9294 240.718 65.5498 237.403 70.6056 237.922C75.6615 238.441 79.2383 242.597 78.5945 247.205Z" fill="#E18477"/>
<path d="M81.9626 246.556C81.3189 251.164 76.6985 254.478 71.6426 253.959C66.5868 253.44 63.01 249.284 63.6537 244.676C64.2974 240.068 68.9179 236.753 73.9737 237.272C79.0296 237.791 82.6063 241.947 81.9626 246.556Z" fill="#A76962"/>
<path d="M133.404 240.152C136.936 260.772 120.133 283.541 111.873 282.693C100.564 281.532 74.2506 270.482 70.7238 249.862C67.197 229.243 78.3787 210.353 95.6857 207.674C112.993 204.995 129.866 219.537 133.404 240.152Z" fill="#E18477"/>
<path d="M97.6803 240.005C100.965 240.342 100.322 244.946 97.0345 244.628L96.8837 244.612C93.5988 244.275 94.2413 239.676 97.5295 239.989L97.6803 240.005Z" fill="#00214E"/>
<path d="M124.744 242.091C127.797 242.404 127.2 246.674 124.144 246.386L124.009 246.372C120.961 246.059 121.558 241.784 124.609 242.077L124.744 242.091Z" fill="#00214E"/>
<path d="M116.71 213.89C116.627 214.016 116.543 214.147 116.454 214.277C114.453 217.152 111.985 219.738 109.134 221.944C103.454 226.439 96.6666 229.705 89.7407 232.284C85.7353 233.842 81.6309 235.174 77.4511 236.27C71.4369 237.758 66.4404 238.296 66.2636 238.427C66.578 232.54 64.7877 219.94 83.8285 209.738C99.178 201.521 119.368 204.36 119.368 204.36C118.796 207.991 118.748 210.714 116.71 213.89Z" fill="url(#paint3_linear_2_129)"/>
<path fill-rule="evenodd" clip-rule="evenodd" d="M113.1 239.03C113.1 239.026 113.102 238.992 113.117 238.955L113.627 239.118C113.636 239.096 113.639 239.077 113.64 239.073C113.641 239.065 113.641 239.06 113.641 239.057C113.642 239.055 113.642 239.053 113.642 239.053C113.642 239.053 113.642 239.053 113.642 239.054C113.642 239.06 113.642 239.071 113.643 239.089C113.645 239.125 113.648 239.178 113.654 239.249C113.665 239.389 113.684 239.591 113.709 239.847C113.759 240.359 113.835 241.081 113.927 241.944C114.112 243.67 114.365 245.956 114.619 248.237C114.874 250.518 115.131 252.794 115.325 254.499C115.421 255.352 115.502 256.062 115.558 256.559L115.647 257.34C115.647 257.34 115.647 257.34 115.377 257.369L115.647 257.34L115.683 257.649L108.612 256.923L108.68 256.433L115.072 257.089L115.018 256.617C114.962 256.12 114.881 255.41 114.785 254.557C114.591 252.851 114.334 250.575 114.079 248.294C113.824 246.013 113.572 243.726 113.387 241.999C113.294 241.136 113.219 240.412 113.168 239.898C113.143 239.641 113.124 239.436 113.113 239.292C113.107 239.22 113.103 239.162 113.101 239.119C113.099 239.098 113.099 239.078 113.099 239.061C113.099 239.053 113.099 239.041 113.1 239.03C113.1 239.03 113.1 239.03 113.1 239.03Z" fill="#00214E"/>
<path fill-rule="evenodd" clip-rule="evenodd" d="M132.587 235.095C128.702 233.613 124.32 233.542 120.334 234.895L120.151 234.433C124.267 233.035 128.791 233.109 132.803 234.639L132.587 235.095Z" fill="#00214E"/>
<path fill-rule="evenodd" clip-rule="evenodd" d="M107.06 234.883C102.021 232.235 95.9139 231.788 90.404 233.664L90.2202 233.202C95.8824 231.274 102.158 231.734 107.336 234.455L107.06 234.883Z" fill="#00214E"/>
<path d="M155.797 318.566C116.271 340.133 66.0889 334.776 33.9069 305.555L61.6741 297.05C62.9966 296.643 64.2819 296.139 65.517 295.542C65.8918 295.362 66.2679 295.172 66.6293 294.97C69.759 293.274 72.4593 290.988 74.5459 288.27C76.1284 286.179 77.3093 283.862 78.0373 281.42C78.3707 281.795 78.7253 282.153 79.0998 282.495C82.0907 285.059 85.4149 287.282 89.0008 289.117C90.7421 290.005 92.5381 290.802 94.3805 291.506C99.9305 293.63 105.868 294.828 111.912 295.043C112.749 295.07 113.594 295.082 114.431 295.113L114.163 297.614L114.141 297.776L120.319 300.86L155.797 318.566Z" fill="url(#paint4_linear_2_129)"/>
<path d="M77.5368 213.047C78.2253 211.869 79.8257 211.407 81.1098 212.016L89.8842 216.18C91.1683 216.79 91.65 218.24 90.9615 219.417V219.417C90.2731 220.595 88.6727 221.057 87.3886 220.448L78.6142 216.284C77.33 215.675 76.8484 214.224 77.5368 213.047V213.047Z" fill="#FF2609"/>
<path d="M72.9364 219.959C73.6249 218.782 75.2252 218.319 76.5094 218.929L85.2838 223.092C86.5679 223.702 87.0496 225.152 86.3611 226.33V226.33C85.6727 227.507 84.0723 227.97 82.7882 227.36L74.0138 223.196C72.7296 222.587 72.248 221.136 72.9364 219.959V219.959Z" fill="#F2D4CF"/>
<path d="M96.3836 259.023C96.5607 258.822 96.8216 258.696 97.1027 258.677C97.3837 258.657 97.6591 258.746 97.8617 258.921C98.881 259.758 100.715 261.484 103.549 262.313C107.413 263.437 111.055 262.347 111.743 263.363C112.133 263.936 111.479 264.516 110.281 265.23C107.771 266.553 104.796 266.908 102.027 266.214C98.3046 265.175 96.0026 260.851 96.2015 259.428C96.2213 259.281 96.2842 259.141 96.3836 259.023Z" fill="white"/>
</g>
<ellipse rx="67.7713" ry="59.0271" transform="matrix(-0.980909 0.194467 0.260445 0.965489 417.638 112.484)" fill="#56CB77"/>
<mask id="mask2_2_129" style="mask-type:alpha" maskUnits="userSpaceOnUse" x="299" y="13" width="199" height="94">
<rect width="185.902" height="59.727" transform="matrix(-0.980909 0.194467 0.260445 0.965489 481.906 13.1272)" fill="#C4C4C4"/>
</mask>
<g mask="url(#mask2_2_129)">
<path fill-rule="evenodd" clip-rule="evenodd" d="M376.606 58.1452C363.228 70.0807 364.54 87.0962 368.358 102.091C369.973 108.431 371.74 114.711 373.505 120.983C376.939 133.185 380.364 145.355 382.635 157.87C382.472 156.977 398.514 151.571 400.391 151.123C404.34 150.184 408.552 149.687 412.716 149.196C414.769 148.954 416.809 148.714 418.801 148.422C422.279 147.926 425.804 147.305 429.347 146.681C436.142 145.483 443.007 144.273 449.749 143.91C451.057 143.84 452.348 143.775 453.629 143.711C460.411 143.373 466.896 143.049 473.889 142.01C474.457 141.983 474.993 141.777 475.394 141.431C475.82 140.958 475.64 140.291 475.483 139.71C473.605 132.746 471.363 125.858 469.124 118.975C465.96 109.253 462.8 99.5407 460.671 89.6422C458.88 81.2171 455.023 73.214 449.354 66.1621C444.495 60.0752 438.083 55.0166 430.605 51.3696C428.581 50.4046 426.468 49.5854 424.286 48.9203C408.065 43.9349 388.685 47.3689 376.606 58.1452ZM432.046 82.7354L425.857 88.7085L396.482 72.9896L399.044 70.7684C403.025 74.3566 407.905 77.1218 413.316 78.8548C419.322 80.8793 425.624 82.1851 432.046 82.7354Z" fill="#00214E"/>
<path d="M364.257 164.936C405.642 181.16 454.591 171.26 483.154 140.89L454.81 135.683C453.942 135.521 453.084 135.32 452.24 135.082L451.566 134.883C451.326 134.812 451.089 134.736 450.851 134.655C447.11 133.386 443.78 131.366 441.14 128.763C438.121 125.779 436.414 122.159 435.349 118.336C434.781 116.232 434.314 114.108 433.811 111.996C433.683 111.525 433.566 111.05 433.459 110.571C433.095 109.14 432.728 107.708 432.356 106.276L432.319 106.283L431.437 106.933L429.031 108.686L413.739 114.162L398.029 119.792L400.573 130.679L401.304 133.799L401.434 134.281L403.116 141.48L397.656 144.779L393.368 147.356L364.257 164.936Z" fill="#F2A196"/>
<path d="M400.574 130.683C401.886 131.123 403.329 131.189 404.688 130.869C412.262 128.613 426.02 120.385 432.946 108.831C432.818 108.36 432.701 107.885 432.594 107.406L432.294 106.293L431.412 106.943L429.006 108.696L413.714 114.172L398.004 119.802L400.574 130.683Z" fill="#E88870"/>
<ellipse rx="9.10761" ry="7.93249" transform="matrix(-0.980909 0.194467 0.260445 0.965489 441.601 89.2415)" fill="#F2A196"/>
<ellipse rx="9.10761" ry="7.93249" transform="matrix(-0.980909 0.194467 0.260445 0.965489 438.205 88.9656)" fill="#E88870"/>
<path d="M377.755 89.6827C376.53 109.233 395.614 128.795 403.675 127.197C414.711 125.009 439.473 112.136 440.694 92.5871C441.914 73.0382 428.805 56.5389 411.427 55.741C394.05 54.9431 378.98 70.1282 377.755 89.6827Z" fill="#F2A196"/>
<path d="M414.267 105.899C412.396 108.818 409.352 111.056 405.702 112.196" stroke="#00214E"/>
<path d="M397.945 87.7113C397.996 87.7962 396.469 92.0667 396.242 96.3974C396.214 98.6954 396.53 100.987 397.184 103.216L404.284 101.808" stroke="#00214E"/>
<path d="M390.39 85.1703C386.24 84.285 381.852 84.7882 378.119 86.5778" stroke="#00214E"/>
<path d="M421.957 80.8009C416.234 79.5803 410.174 80.6077 405.424 83.6041" stroke="#00214E"/>
<path d="M413.817 86.6198C410.617 87.2779 411.751 91.4812 414.961 90.8637L415.103 90.8355C418.309 90.2 417.17 85.9787 413.959 86.5917L413.817 86.6198Z" fill="#00214E"/>
<path d="M387.304 91.2164C384.329 91.8061 385.387 95.7255 388.366 95.1539L388.497 95.1278C391.477 94.5371 390.42 90.6176 387.435 91.1903L387.304 91.2164Z" fill="#00214E"/>
<path d="M388.62 55.1938C389.437 57.2669 390.403 59.2944 391.514 61.2645C393.444 64.747 395.99 67.9532 399.061 70.7697C403.042 74.3579 407.922 77.1231 413.333 78.8562C419.339 80.8807 425.641 82.1865 432.063 82.7367C437.149 83.1751 442.264 83.3076 447.372 83.1331C446.282 79.7279 445.298 75.4428 443.727 71.5492C442.586 68.7568 441.113 66.1681 439.036 64.2589C433.443 59.2269 426.301 55.6567 418.438 53.962L418.367 53.9475C409.67 52.0599 396.718 51.0634 388.62 55.1938Z" fill="#00214E"/>
<path d="M399.076 70.7857C403.057 74.3739 407.938 77.1391 413.349 78.8721C419.354 80.8966 425.657 82.2024 432.078 82.7527L443.742 71.5651L449.359 66.1801C444.5 60.0933 438.088 55.0346 430.609 51.3876C428.585 50.4163 426.47 49.591 424.286 48.9203L418.453 53.9779L399.076 70.7857Z" fill="url(#paint5_linear_2_129)"/>
</g>
<mask id="mask3_2_129" style="mask-type:alpha" maskUnits="userSpaceOnUse" x="349" y="53" width="137" height="118">
<ellipse rx="67.7713" ry="59.0271" transform="matrix(-0.980909 0.194467 0.260445 0.965489 417.638 112.484)" fill="#C4C4C4"/>
</mask>
<g mask="url(#mask3_2_129)">
<path fill-rule="evenodd" clip-rule="evenodd" d="M376.606 58.1452C363.228 70.0807 364.54 87.0962 368.358 102.091C369.973 108.431 371.74 114.711 373.505 120.983C376.939 133.185 380.364 145.355 382.635 157.87C382.472 156.977 398.514 151.571 400.391 151.123C404.34 150.184 408.552 149.687 412.716 149.196C414.769 148.954 416.809 148.714 418.801 148.422C422.279 147.926 425.804 147.305 429.347 146.681C436.142 145.483 443.007 144.273 449.749 143.91C451.057 143.84 452.348 143.775 453.629 143.711C460.411 143.373 466.896 143.049 473.889 142.01C474.457 141.983 474.993 141.777 475.394 141.431C475.82 140.958 475.64 140.291 475.483 139.71C473.605 132.746 471.363 125.858 469.124 118.975C465.96 109.253 462.8 99.5407 460.671 89.6422C458.88 81.2171 455.022 73.214 449.354 66.1621C444.495 60.0752 438.083 55.0166 430.605 51.3696C428.581 50.4046 426.468 49.5854 424.286 48.9203C408.065 43.9349 388.685 47.3689 376.606 58.1452ZM432.046 82.7354L425.857 88.7085L396.482 72.9896L399.044 70.7684C403.025 74.3566 407.905 77.1218 413.316 78.8548C419.322 80.8793 425.624 82.1851 432.046 82.7354Z" fill="#00214E"/>
<path d="M364.257 164.936C405.642 181.16 454.591 171.26 483.154 140.89L454.81 135.683C453.942 135.521 453.084 135.32 452.24 135.082L451.566 134.883C451.326 134.812 451.089 134.736 450.851 134.655C447.11 133.386 443.78 131.366 441.14 128.763C438.121 125.779 436.414 122.159 435.349 118.336C434.781 116.232 434.314 114.108 433.811 111.996C433.683 111.525 433.566 111.05 433.459 110.571C433.095 109.14 432.728 107.708 432.356 106.276L432.319 106.283L431.437 106.933L429.031 108.686L413.739 114.162L398.029 119.792L400.573 130.679L401.304 133.799L401.434 134.281L403.116 141.48L397.656 144.779L393.368 147.356L364.257 164.936Z" fill="#F2A196"/>
<path d="M400.574 130.683C401.886 131.123 403.329 131.189 404.688 130.869C412.262 128.613 426.02 120.385 432.946 108.831C432.818 108.36 432.701 107.885 432.594 107.406L432.294 106.293L431.412 106.943L429.006 108.696L413.714 114.172L398.004 119.802L400.574 130.683Z" fill="#E88870"/>
<ellipse rx="9.10761" ry="7.93249" transform="matrix(-0.980909 0.194467 0.260445 0.965489 441.601 89.2415)" fill="#F2A196"/>
<ellipse rx="9.10761" ry="7.93249" transform="matrix(-0.980909 0.194467 0.260445 0.965489 438.205 88.9656)" fill="#E88870"/>
<path d="M377.755 89.6827C376.53 109.233 395.614 128.795 403.675 127.197C414.711 125.009 439.473 112.136 440.694 92.5871C441.914 73.0382 428.805 56.5389 411.427 55.741C394.05 54.9432 378.98 70.1282 377.755 89.6827Z" fill="#F2A196"/>
<path d="M414.267 105.899C412.396 108.818 409.352 111.056 405.702 112.196" stroke="#00214E"/>
<path d="M397.945 87.7113C397.996 87.7962 396.469 92.0668 396.242 96.3974C396.214 98.6955 396.53 100.987 397.184 103.216L404.284 101.808" stroke="#00214E"/>
<path d="M390.39 85.1703C386.24 84.285 381.852 84.7882 378.119 86.5778" stroke="#00214E"/>
<path d="M421.957 80.8009C416.234 79.5803 410.174 80.6077 405.424 83.6041" stroke="#00214E"/>
<path d="M413.817 86.6199C410.617 87.2779 411.751 91.4812 414.961 90.8637L415.103 90.8356C418.309 90.2 417.17 85.9787 413.959 86.5917L413.817 86.6199Z" fill="#00214E"/>
<path d="M387.304 91.2164C384.329 91.8061 385.387 95.7256 388.366 95.1539L388.497 95.1278C391.477 94.5371 390.42 90.6177 387.435 91.1904L387.304 91.2164Z" fill="#00214E"/>
<path d="M388.62 55.1938C389.437 57.2669 390.403 59.2944 391.514 61.2645C393.444 64.747 395.99 67.9532 399.061 70.7697C403.042 74.358 407.922 77.1232 413.333 78.8562C419.339 80.8807 425.641 82.1865 432.063 82.7368C437.149 83.1751 442.264 83.3076 447.372 83.1331C446.282 79.728 445.298 75.4428 443.727 71.5492C442.586 68.7569 441.113 66.1681 439.036 64.2589C433.443 59.2269 426.301 55.6567 418.438 53.962L418.367 53.9475C409.67 52.06 396.718 51.0635 388.62 55.1938Z" fill="#00214E"/>
<path d="M364.257 164.936C405.642 181.16 454.591 171.26 483.154 140.89L454.81 135.683C453.46 135.434 452.136 135.09 450.851 134.655C450.461 134.523 450.069 134.383 449.69 134.23C446.415 132.956 443.498 131.092 441.14 128.763C439.349 126.97 437.929 124.927 436.942 122.723C436.654 123.105 436.344 123.474 436.011 123.828C433.341 126.511 430.304 128.909 426.965 130.971C425.344 131.968 423.658 132.887 421.917 133.723C416.671 136.244 410.942 137.941 404.999 138.733C404.175 138.84 403.342 138.934 402.52 139.044L403.058 141.349L403.098 141.497L397.338 144.974L364.257 164.936Z" fill="#F2D4CF"/>
<path d="M399.076 70.7857C403.057 74.3739 407.938 77.1391 413.349 78.8721C419.354 80.8966 425.657 82.2024 432.078 82.7527L443.742 71.5651L449.359 66.1801C444.5 60.0933 438.088 55.0346 430.609 51.3876C428.585 50.4163 426.47 49.591 424.286 48.9203L418.453 53.978L399.076 70.7857Z" fill="url(#paint6_linear_2_129)"/>
</g>
<ellipse rx="59.4105" ry="51.255" transform="matrix(-0.99249 -0.122326 -0.165395 0.986227 1351.09 123.613)" fill="#FB7777"/>
<mask id="mask4_2_129" style="mask-type:alpha" maskUnits="userSpaceOnUse" x="1269" y="40" width="171" height="72">
<rect width="162.968" height="51.8628" transform="matrix(-0.99249 -0.122326 -0.165395 0.986227 1440 60.1374)" fill="#C4C4C4"/>
</mask>
<g mask="url(#mask4_2_129)">
<ellipse rx="14.4041" ry="12.4268" transform="matrix(-0.99249 -0.122326 -0.165395 0.986227 1361.04 66.9925)" fill="url(#paint7_linear_2_129)"/>
<path d="M1337.53 131.979C1345.02 132.788 1352.56 133.121 1360.1 132.975C1375.13 132.682 1390.17 130.436 1404.24 125.853C1405.08 125.577 1405.91 125.296 1406.76 125.009C1396.78 114.182 1390.11 101.749 1384.89 88.7876C1381.13 79.4369 1379.39 73.3615 1368.73 68.3075C1350.19 59.5255 1322.67 62.451 1313.92 80.6728C1310.23 88.3747 1308.74 96.7193 1308.71 105.016C1308.68 113.039 1309.54 128.603 1309.54 128.603C1309.54 128.603 1333.86 131.584 1337.53 131.979Z" fill="url(#paint8_linear_2_129)"/>
<ellipse rx="7.98403" ry="6.88803" transform="matrix(-0.99249 -0.122326 -0.165395 0.986227 1372.98 110.58)" fill="#F2A196"/>
<ellipse rx="7.98403" ry="6.88803" transform="matrix(-0.99249 -0.122326 -0.165395 0.986227 1370.32 109.436)" fill="#E88870"/>
<path d="M1320.85 93.6565C1312.65 109.237 1320.98 130.327 1328.13 131.208C1337.92 132.414 1362.81 128.639 1371.01 113.057C1379.2 97.4757 1374.65 80.5019 1360.8 75.1446C1346.95 69.7872 1329.05 78.0873 1320.85 93.6565Z" fill="#F2A196"/>
<path d="M1349.72 100.662C1346.88 100.331 1346.25 104.055 1349.09 104.426L1349.22 104.442C1352.07 104.772 1352.69 101.048 1349.85 100.678L1349.73 100.662L1349.72 100.662Z" fill="#00214E"/>
<path d="M1326.55 96.2397C1323.91 95.934 1323.33 99.3905 1325.97 99.7362L1326.08 99.7506C1328.72 100.076 1329.3 96.5992 1326.67 96.2541L1326.55 96.2397Z" fill="#00214E"/>
<ellipse rx="8.92332" ry="7.69838" transform="matrix(-0.99249 -0.122326 -0.165395 0.986227 1349.41 102.576)" stroke="white"/>
<ellipse rx="8.92332" ry="7.69838" transform="matrix(-0.99249 -0.122326 -0.165395 0.986227 1324.84 98.3252)" stroke="white"/>
<path d="M1342.51 74.2656C1343.27 81.9856 1346.58 88.8707 1353.8 94.4799C1361.58 100.667 1370.28 104.259 1379.93 107.183C1380.56 101.913 1382.47 94.6275 1380.1 89.5678C1377.39 83.9404 1372.88 79.0889 1367.07 75.5798C1360.68 71.6721 1350.51 67.3589 1342.4 68.5208C1342.3 70.4359 1342.33 72.3546 1342.51 74.2656V74.2656Z" fill="url(#paint9_linear_2_129)"/>
<path d="M1337.95 96.5391C1337.96 96.6795 1332.09 109.007 1332.09 109.007L1337.92 109.725" stroke="#00214E"/>
<path d="M1333.29 91.8008C1330.24 89.9529 1326.48 89.1745 1322.79 89.6249" stroke="#00214E"/>
<path d="M1358.73 96.4294C1354.53 93.8867 1349.21 93.0826 1344.24 94.2356" stroke="#00214E"/>
<path d="M1340.55 101.485L1333.58 100.1" stroke="white"/>
</g>
<mask id="mask5_2_129" style="mask-type:alpha" maskUnits="userSpaceOnUse" x="1291" y="72" width="120" height="103">
<ellipse rx="59.4105" ry="51.255" transform="matrix(-0.99249 -0.122326 -0.165395 0.986227 1351.09 123.613)" fill="#C4C4C4"/>
</mask>
<g mask="url(#mask5_2_129)">
<ellipse rx="14.4041" ry="12.4268" transform="matrix(-0.99249 -0.122326 -0.165395 0.986227 1361.04 66.9925)" fill="url(#paint10_linear_2_129)"/>
<path d="M1337.53 131.979C1345.02 132.788 1352.56 133.121 1360.1 132.975C1375.13 132.682 1390.17 130.436 1404.24 125.853C1405.08 125.577 1405.91 125.296 1406.76 125.009C1396.78 114.182 1390.11 101.749 1384.89 88.7876C1381.13 79.4369 1379.39 73.3615 1368.73 68.3075C1350.19 59.5255 1322.67 62.451 1313.92 80.6728C1310.23 88.3747 1308.74 96.7193 1308.71 105.016C1308.68 113.039 1309.54 128.603 1309.54 128.603C1309.54 128.603 1333.86 131.584 1337.53 131.979Z" fill="url(#paint11_linear_2_129)"/>
<path d="M1282.14 151.255C1309.85 175.663 1353.34 180.856 1387.77 163.867L1366.62 151.956C1365.97 151.589 1365.35 151.194 1364.75 150.771L1364.28 150.427C1364.11 150.305 1363.94 150.178 1363.78 150.048C1361.2 148.002 1359.23 145.454 1358.04 142.62C1356.69 139.373 1356.63 135.965 1357.17 132.564C1357.48 130.698 1357.89 128.843 1358.25 126.988C1358.32 126.567 1358.4 126.149 1358.49 125.733C1358.72 124.467 1358.95 123.202 1359.18 121.938L1359.14 121.934L1358.19 122.224L1355.58 123L1341.12 123.318L1326.26 123.648L1324.32 133.198L1323.76 135.935L1323.69 136.363L1322.41 142.677L1316.75 143.885L1312.31 144.822L1282.14 151.255Z" fill="#F2A196"/>
<path d="M1324.32 133.206C1325.22 133.919 1326.37 134.363 1327.6 134.47C1334.6 134.685 1348.82 131.711 1358.72 124.183C1358.79 123.762 1358.87 123.343 1358.96 122.927L1359.13 121.94L1358.17 122.23L1355.57 123.006L1341.1 123.324L1326.24 123.654L1324.32 133.206Z" fill="#E88870"/>
<ellipse rx="7.98403" ry="6.88803" transform="matrix(-0.99249 -0.122326 -0.165395 0.986227 1372.98 110.58)" fill="#F2A196"/>
<ellipse rx="7.98403" ry="6.88803" transform="matrix(-0.99249 -0.122326 -0.165395 0.986227 1370.32 109.436)" fill="#E88870"/>
<path d="M1320.85 93.6565C1312.65 109.237 1320.98 130.327 1328.13 131.208C1337.92 132.414 1362.81 128.639 1371.01 113.057C1379.2 97.4757 1374.65 80.5019 1360.8 75.1446C1346.95 69.7872 1329.05 78.0873 1320.85 93.6565Z" fill="#F2A196"/>
<path d="M1349.72 100.662C1346.88 100.331 1346.25 104.055 1349.09 104.426L1349.22 104.442C1352.07 104.772 1352.69 101.048 1349.85 100.678L1349.73 100.662L1349.72 100.662Z" fill="#00214E"/>
<path d="M1326.55 96.2397C1323.91 95.934 1323.33 99.3905 1325.97 99.7362L1326.08 99.7506C1328.72 100.076 1329.3 96.5992 1326.67 96.2541L1326.55 96.2397Z" fill="#00214E"/>
<ellipse rx="8.92332" ry="7.69838" transform="matrix(-0.99249 -0.122326 -0.165395 0.986227 1349.41 102.576)" stroke="white"/>
<ellipse rx="8.92332" ry="7.69838" transform="matrix(-0.99249 -0.122326 -0.165395 0.986227 1324.84 98.3252)" stroke="white"/>
<path d="M1342.51 74.2656C1343.27 81.9856 1346.58 88.8707 1353.8 94.4799C1361.58 100.667 1370.28 104.259 1379.93 107.183C1380.56 101.913 1382.47 94.6275 1380.1 89.5678C1377.39 83.9404 1372.88 79.0889 1367.07 75.5798C1360.68 71.6721 1350.51 67.3589 1342.4 68.5208C1342.3 70.4359 1342.33 72.3546 1342.51 74.2656V74.2656Z" fill="url(#paint12_linear_2_129)"/>
<path d="M1337.95 96.5391C1337.96 96.6795 1332.09 109.007 1332.09 109.007L1337.92 109.725" stroke="#00214E"/>
<path d="M1333.29 91.8008C1330.24 89.9529 1326.48 89.1745 1322.79 89.6249" stroke="#00214E"/>
<path d="M1358.73 96.4294C1354.53 93.8867 1349.21 93.0826 1344.24 94.2356" stroke="#00214E"/>
<path d="M1340.55 101.485L1333.58 100.1" stroke="white"/>
<path d="M1282.14 151.256C1309.85 175.664 1353.34 180.856 1387.78 163.867L1366.63 151.957C1365.62 151.389 1364.67 150.75 1363.78 150.048C1363.51 149.836 1363.25 149.615 1362.99 149.388C1360.79 147.464 1359.11 145.155 1358.04 142.62C1357.25 140.678 1356.85 138.634 1356.85 136.576C1356.48 136.808 1356.09 137.025 1355.69 137.223C1352.53 138.683 1349.17 139.811 1345.7 140.584C1344.01 140.957 1342.3 141.249 1340.57 141.458C1335.38 142.09 1330.09 141.92 1324.96 140.956C1324.25 140.82 1323.54 140.671 1322.83 140.539L1322.41 142.56L1322.39 142.692L1316.42 143.963L1282.14 151.256Z" fill="#845161"/>
<path d="M1347.14 115.467C1347.04 115.276 1346.85 115.129 1346.62 115.062C1346.39 114.995 1346.13 115.013 1345.92 115.112C1344.86 115.577 1342.88 116.597 1340.29 116.715C1336.76 116.879 1333.98 115.333 1333.14 116.005C1332.67 116.383 1333.07 116.967 1333.9 117.75C1335.67 119.264 1338.07 120.103 1340.57 120.078C1343.97 119.953 1346.99 116.982 1347.19 115.819C1347.21 115.7 1347.19 115.579 1347.14 115.467V115.467Z" fill="white"/>
</g>
<ellipse rx="45.3122" ry="39.2343" transform="matrix(0.988109 0.153754 -0.207134 0.978313 949.696 297.443)" fill="#FFB950"/>
<mask id="mask6_2_129" style="mask-type:alpha" maskUnits="userSpaceOnUse" x="894" y="233" width="133" height="58">
<rect width="124.295" height="39.6996" transform="matrix(0.988109 0.153754 -0.207134 0.978313 903.198 233.008)" fill="#C4C4C4"/>
</mask>
<g mask="url(#mask6_2_129)">
<path d="M982.623 330.111C955.656 342.048 922.681 336.787 902.527 317.335L921.215 313.093C922.105 312.891 922.974 312.625 923.814 312.301C924.069 312.202 924.325 312.098 924.571 311.986C926.706 311.048 928.58 309.726 930.064 308.111C931.191 306.868 932.061 305.468 932.637 303.973C933.02 303.004 933.321 302.013 933.535 301.007C933.758 299.957 933.948 298.902 934.128 297.846C934.248 297.156 934.373 296.464 934.507 295.777C934.697 294.814 934.888 293.85 935.083 292.886L935.727 293.299L937.394 294.402L938.221 294.659L947.784 297.633L958.458 300.955L956.735 310.716L956.173 313.907L955.9 315.457L955.88 315.551L956.207 315.733L959.836 317.708L982.623 330.111Z" fill="#F2A196"/>
<path d="M989.154 268.355C989.084 268.529 989.008 268.699 988.925 268.868C988.488 269.732 987.91 270.538 987.208 271.262L987.17 271.3C986.904 271.572 986.624 271.842 986.326 272.109C985.542 272.791 984.708 273.431 983.83 274.024L983.306 274.372C982.953 274.609 982.597 274.838 982.242 275.065C983.881 275.007 985.14 276.503 985.132 277.906C985.124 279.309 984.2 280.582 983.16 281.674C981.336 283.609 979.058 284.731 976.925 286.327C975.329 287.514 974.258 289.046 972.558 290.154L972.43 290.238C967.968 293.029 961.883 292.897 956.651 293.571C954.771 293.818 934.591 295.504 934.375 296.524C934.422 296.302 932.881 294.411 930.925 292.097C923.894 283.861 923.364 272.742 930.358 264.365C937.879 255.349 951.707 250.233 964.174 248.681C968.071 248.197 972.391 248.136 975.564 250.14C978.737 252.145 979.511 256.951 976.154 258.716C978.22 257.821 980.598 257.609 982.835 258.123C984.908 258.562 986.724 259.632 987.944 261.134C988.909 262.334 989.49 263.73 989.628 265.182C989.731 266.257 989.57 267.338 989.154 268.355V268.355Z" fill="#845161"/>
<path d="M989.154 268.355C989.084 268.529 989.008 268.699 988.925 268.868C988.882 268.915 988.838 268.964 988.794 269.02C988.228 269.741 987.865 270.556 987.222 271.264L987.185 271.302C986.919 271.574 986.638 271.844 986.341 272.111C985.561 272.798 984.727 273.438 983.844 274.026L983.306 274.372C982.953 274.609 982.597 274.838 982.242 275.065C983.881 275.007 985.14 276.503 985.132 277.906C985.124 279.309 984.2 280.582 983.161 281.674C981.336 283.609 979.058 284.731 976.925 286.327C975.329 287.514 974.258 289.046 972.558 290.154C971.266 288.218 970.651 286.004 970.786 283.776C971.057 279.662 972.34 275.333 973.042 271.236C973.486 268.66 972.623 268.037 974.853 266.243C976.615 264.944 978.568 263.847 980.662 262.981C982.279 262.39 984.164 262.552 985.843 263.029C987.308 263.439 988.614 264.184 989.621 265.184C989.726 266.257 989.567 267.338 989.154 268.355Z" fill="#69303A"/>
<ellipse rx="6.08939" ry="5.2726" transform="matrix(0.988109 0.153754 -0.207134 0.978313 933.4 283.845)" fill="#F2A196"/>
<ellipse rx="5.45179" ry="4.72053" transform="matrix(0.988109 0.153754 -0.207134 0.978313 935.307 284.142)" fill="#E88870"/>
<path d="M936.417 279.299L934.312 296.837L955.334 312.275C958.476 313.877 962.523 313.176 964.693 310.654C969.335 305.239 976.75 296.702 976.774 293.101C976.805 287.778 974.359 285.517 974.359 285.517C975.181 283.555 976 281.599 976.815 279.649C977.743 277.44 978.817 275.15 978.64 272.756C978.442 270.011 976.364 268.531 974.876 266.272C968.692 271.026 959.79 272.872 951.923 274.924C947.865 275.997 936.417 279.299 936.417 279.299Z" fill="#F2A196"/>
<path d="M953.944 281.337C956.103 281.673 955.5 284.519 953.338 284.198L953.239 284.183C951.08 283.847 951.682 281.001 953.844 281.322L953.944 281.337Z" fill="#00214E"/>
<path d="M971.772 283.676C973.776 284.003 973.22 286.628 971.21 286.331L971.122 286.317C969.118 286.005 969.677 283.365 971.684 283.662L971.772 283.676Z" fill="#00214E"/>
<path d="M963.111 281.914C963.06 282.016 965.519 293.613 965.519 293.613L959.113 292.889" stroke="#00214E"/>
<path d="M948.521 277.475C951.92 277.405 955.307 277.848 958.528 278.785" stroke="#00214E"/>
<path d="M969.414 280.76C971.522 280.673 973.633 280.873 975.668 281.354" stroke="#00214E"/>
</g>
<mask id="mask7_2_129" style="mask-type:alpha" maskUnits="userSpaceOnUse" x="904" y="258" width="92" height="79">
<ellipse rx="45.3122" ry="39.2343" transform="matrix(0.988109 0.153754 -0.207134 0.978313 949.696 297.443)" fill="#C4C4C4"/>
</mask>
<g mask="url(#mask7_2_129)">
<path d="M982.623 330.111C955.656 342.048 922.681 336.787 902.527 317.335L921.215 313.093C922.105 312.891 922.974 312.625 923.814 312.301C924.069 312.202 924.325 312.098 924.571 311.986C926.706 311.048 928.58 309.726 930.064 308.111C931.191 306.868 932.061 305.468 932.637 303.973C933.02 303.004 933.321 302.013 933.535 301.007C933.758 299.957 933.948 298.902 934.128 297.846C934.248 297.156 934.373 296.464 934.507 295.777C934.697 294.814 934.888 293.85 935.083 292.886L935.727 293.299L937.394 294.402L938.221 294.659L947.784 297.633L958.458 300.955L956.735 310.716L956.173 313.907L955.9 315.457L955.88 315.551L956.207 315.733L959.836 317.708L982.623 330.111Z" fill="#F2A196"/>
<path d="M955.876 315.55C954.622 315.54 953.406 315.179 952.412 314.522L934.426 296.438C934.546 295.748 934.373 296.461 934.508 295.774C934.697 294.811 934.889 293.847 935.084 292.883L935.727 293.296L937.395 294.399L938.222 294.656L947.785 297.63L958.459 300.952L956.736 310.713L956.174 313.904L955.9 315.454L955.88 315.551L955.876 315.55Z" fill="#E88870"/>
<path d="M982.623 330.111C955.656 342.048 922.681 336.787 902.527 317.335L921.215 313.093C922.105 312.891 922.974 312.625 923.814 312.301C924.069 312.202 924.325 312.098 924.571 311.986C931.83 318.368 942.527 323.346 953.17 321.081C955.706 320.535 958.169 319.402 959.842 317.712L982.623 330.111Z" fill="url(#paint13_linear_2_129)"/>
<path d="M989.154 268.355C989.084 268.529 989.008 268.699 988.925 268.868C988.488 269.732 987.91 270.538 987.208 271.262L987.17 271.3C986.904 271.572 986.624 271.842 986.326 272.109C985.542 272.791 984.708 273.431 983.83 274.024L983.306 274.372C982.953 274.609 982.597 274.838 982.242 275.065C983.881 275.007 985.14 276.503 985.132 277.906C985.124 279.309 984.2 280.582 983.16 281.674C981.336 283.609 979.058 284.731 976.925 286.327C975.329 287.514 974.258 289.046 972.558 290.154L972.43 290.238C967.968 293.029 961.883 292.897 956.651 293.571C954.771 293.818 934.591 295.504 934.375 296.524C934.422 296.302 932.881 294.411 930.925 292.097C923.894 283.861 923.364 272.742 930.358 264.365C937.879 255.349 951.707 250.233 964.174 248.681C968.071 248.197 972.391 248.136 975.564 250.14C978.737 252.145 979.511 256.951 976.154 258.716C978.22 257.821 980.598 257.609 982.835 258.123C984.908 258.562 986.724 259.632 987.944 261.134C988.909 262.334 989.49 263.73 989.628 265.182C989.731 266.257 989.57 267.338 989.154 268.355V268.355Z" fill="#845161"/>
<path d="M989.154 268.355C989.084 268.529 989.008 268.699 988.925 268.868C988.882 268.915 988.838 268.964 988.794 269.02C988.228 269.741 987.865 270.556 987.222 271.264L987.185 271.302C986.919 271.574 986.638 271.844 986.341 272.111C985.561 272.798 984.727 273.438 983.844 274.026L983.306 274.372C982.953 274.609 982.597 274.838 982.242 275.065C983.881 275.007 985.14 276.503 985.132 277.906C985.124 279.309 984.2 280.582 983.161 281.674C981.336 283.609 979.058 284.731 976.925 286.327C975.329 287.514 974.258 289.046 972.558 290.154C971.266 288.218 970.651 286.004 970.786 283.776C971.057 279.662 972.34 275.333 973.042 271.236C973.486 268.66 972.623 268.037 974.853 266.243C976.615 264.944 978.568 263.847 980.662 262.981C982.279 262.39 984.164 262.552 985.843 263.029C987.308 263.439 988.614 264.184 989.621 265.184C989.726 266.257 989.567 267.338 989.154 268.355Z" fill="#69303A"/>
<ellipse rx="6.08939" ry="5.2726" transform="matrix(0.988109 0.153754 -0.207134 0.978313 933.4 283.845)" fill="#F2A196"/>
<ellipse rx="5.45179" ry="4.72053" transform="matrix(0.988109 0.153754 -0.207134 0.978313 935.307 284.142)" fill="#E88870"/>
<path d="M936.417 279.299L934.312 296.837L955.334 312.275C958.476 313.877 962.523 313.176 964.693 310.654C969.335 305.239 976.75 296.702 976.774 293.101C976.805 287.778 974.359 285.517 974.359 285.517C975.181 283.555 976 281.599 976.815 279.649C977.743 277.44 978.817 275.15 978.64 272.756C978.442 270.011 976.364 268.531 974.876 266.272C968.692 271.026 959.79 272.872 951.923 274.924C947.865 275.997 936.417 279.299 936.417 279.299Z" fill="#F2A196"/>
<path d="M953.944 281.337C956.103 281.673 955.5 284.519 953.338 284.198L953.239 284.183C951.08 283.847 951.682 281.001 953.844 281.322L953.944 281.337Z" fill="#00214E"/>
<path d="M971.772 283.676C973.776 284.003 973.22 286.628 971.21 286.331L971.122 286.317C969.118 286.005 969.677 283.365 971.684 283.662L971.772 283.676Z" fill="#00214E"/>
<path d="M963.111 281.914C963.06 282.016 965.519 293.613 965.519 293.613L959.113 292.889" stroke="#00214E"/>
<path d="M948.521 277.475C951.92 277.405 955.307 277.848 958.528 278.785" stroke="#00214E"/>
<path d="M969.414 280.76C971.522 280.673 973.633 280.873 975.668 281.354" stroke="#00214E"/>
<path d="M951.965 294.914C952.09 294.796 952.268 294.728 952.454 294.727C952.64 294.726 952.819 294.792 952.945 294.91C953.588 295.467 954.734 296.617 956.576 297.239C959.087 298.091 961.534 297.547 961.954 298.208C962.19 298.58 961.734 298.916 960.918 299.3C959.208 300.03 957.226 300.139 955.422 299.601C953.001 298.808 951.645 296.027 951.832 295.144C951.853 295.059 951.898 294.98 951.965 294.914V294.914Z" fill="white"/>
</g>
<g filter="url(#filter0_i_2_129)">
<ellipse rx="82.2058" ry="70.8181" transform="matrix(0.994227 -0.107296 0.145284 0.98939 910.683 113.809)" fill="url(#paint14_radial_2_129)"/>
</g>
<mask id="mask8_2_129" style="mask-type:alpha" maskUnits="userSpaceOnUse" x="789" y="0" width="236" height="96">
<rect width="225.497" height="71.6578" transform="matrix(0.994227 -0.107296 0.145284 0.98939 789.556 24.195)" fill="#C4C4C4"/>
</mask>
<g mask="url(#mask8_2_129)">
<path d="M962.311 62.9094C962.952 67.2685 957.738 71.5447 957.075 75.7012C956.395 80.0059 960.024 85.3252 958.104 89.2348C956.184 93.1443 949.147 94.7027 946.089 98.0543C943.03 101.406 943.089 107.617 939.094 110.22C935.098 112.823 928.24 111.087 923.552 112.724C919.019 114.305 915.478 119.695 910.387 120.244C905.296 120.794 900.314 116.324 895.466 115.755C890.451 115.171 884.24 118.284 879.685 116.631C875.13 114.979 873.308 108.958 869.391 106.331C865.474 103.705 858.237 103.765 855.2 100.34C852.164 96.9148 854.189 91.0359 852.285 87.0101C850.441 83.1241 844.154 80.0891 843.514 75.73C842.874 71.3709 848.087 67.0947 848.75 62.9382C849.431 58.6335 845.801 53.3141 847.721 49.4046C849.641 45.4951 856.678 43.9367 859.736 40.5851C862.795 37.2335 862.73 31.0231 866.732 28.4193C870.734 25.8155 877.585 27.5519 882.274 25.9149C886.806 24.3342 890.347 18.9444 895.432 18.3957C900.516 17.8469 905.511 22.3156 910.359 22.884C915.374 23.4681 921.579 20.3565 926.14 22.008C930.701 23.6595 932.518 29.681 936.435 32.3079C940.351 34.9348 947.588 34.874 950.625 38.2993C953.661 41.7246 951.63 47.6042 953.54 51.6293C955.384 55.5152 961.671 58.5503 962.311 62.9094Z" fill="#00214E"/>
<ellipse rx="11.0474" ry="9.51705" transform="matrix(0.994227 -0.107296 0.145284 0.98939 873.212 98.25)" fill="#E18477"/>
<ellipse rx="10.3976" ry="8.95723" transform="matrix(0.994227 -0.107296 0.145284 0.98939 876.917 97.2875)" fill="#A76962"/>
<path d="M873.699 78.7292C873.27 79.3382 872.976 80.467 872.749 82.2696C872.227 86.4502 881.039 112.58 883.128 120.322L908.843 132.66C917.399 136.821 927.653 137.554 936.894 134.663C940.573 133.484 942.904 132.726 944.233 129.933C946.809 124.591 952.426 106.66 951.189 94.5724C950.837 91.1444 949.975 85.9483 947.092 83.2998C945.69 82.0164 945.072 82.055 945.211 80.0087C945.35 77.9625 945.689 75.754 945.921 73.6246C946.56 67.7433 946.794 61.1518 943.819 55.6887C942.234 52.765 939.929 50.9657 936.786 49.3187C933.429 47.5541 932.184 47.7898 930.811 51.0888C929.886 53.3268 928.906 55.2331 926.581 56.6993C923.209 58.8131 920.577 57.9606 916.943 58.1108C913.76 58.2461 914.403 60.298 914.004 62.3666C913.596 64.537 912.315 66.5165 910.382 67.9621C906.779 70.568 901.736 71.1364 897.469 69.4176C896.885 69.1457 896.214 69.0425 895.556 69.1233C893.412 69.4559 893.642 71.6875 893.385 73.3357C892.833 76.7712 888.574 79.0989 884.509 79.2674C877.883 79.5549 875.084 76.6723 873.699 78.7292Z" fill="#E18477"/>
<path d="M927.01 83.042C927.503 85.1746 928.249 87.2584 929.236 89.2612C930.151 91.0248 931.301 92.0598 932.825 93.499C933.347 93.972 933.816 94.4866 934.225 95.0358C936.414 98.1418 934.682 102.037 930.366 102.502L927.698 102.79" stroke="#00214E"/>
<path d="M895.287 80.2087C901.113 78.5045 907.243 77.6924 913.397 77.8098" stroke="#00214E"/>
<path d="M933.448 76.1523C937.034 75.0154 940.809 74.3782 944.63 74.2647" stroke="#00214E"/>
<path d="M905.545 84.4526C909.493 84.0266 910.255 89.222 906.312 89.6758L906.137 89.6946C902.192 90.0922 901.433 84.9245 905.37 84.4714L905.545 84.4526Z" fill="#00214E"/>
<path d="M937.97 80.5819C941.627 80.1873 942.335 85.0061 938.682 85.4284L938.514 85.4465C934.853 85.8135 934.15 81.0224 937.802 80.6L937.97 80.5819Z" fill="#00214E"/>
<ellipse rx="3.90559" ry="3.36456" transform="matrix(0.994227 -0.107296 0.145284 0.98939 873.105 97.6989)" fill="#F2D4CF"/>
<path d="M866.923 106.508C866.672 106.501 866.421 106.489 866.168 106.465C861.368 106.049 857.699 102.608 857.647 98.4722C857.594 94.3366 861.175 90.8275 865.963 90.3222V90.3222C866.239 90.2917 866.502 90.4272 866.6 90.6496C866.699 90.872 866.606 91.1232 866.376 91.2567C863.721 92.8844 862.229 95.5685 862.428 98.3617C862.626 101.155 864.486 103.664 867.351 105.004C867.728 105.175 867.921 105.544 867.82 105.899C867.719 106.254 867.349 106.505 866.923 106.508V106.508Z" fill="#F2D4CF"/>
<path d="M864.483 91.3709C865.757 90.7889 867.242 90.6428 868.637 90.9621C870.124 91.3469 871.351 92.2558 872.01 93.462C872.507 94.3103 872.803 95.2344 872.882 96.1812" stroke="#F2D4CF" stroke-width="2"/>
</g>
<mask id="mask9_2_129" style="mask-type:alpha" maskUnits="userSpaceOnUse" x="828" y="43" width="166" height="142">
<ellipse rx="82.2058" ry="70.8181" transform="matrix(0.994227 -0.107296 0.145284 0.98939 910.683 113.809)" fill="#357AFF"/>
</mask>
<g mask="url(#mask9_2_129)">
<path d="M962.311 62.9094C962.952 67.2685 957.738 71.5447 957.075 75.7012C956.395 80.0059 960.024 85.3252 958.104 89.2348C956.184 93.1443 949.147 94.7027 946.089 98.0543C943.03 101.406 943.089 107.617 939.094 110.22C935.098 112.823 928.24 111.087 923.552 112.724C919.019 114.305 915.478 119.695 910.387 120.244C905.296 120.794 900.314 116.324 895.466 115.755C890.451 115.171 884.24 118.284 879.685 116.631C875.13 114.979 873.308 108.958 869.391 106.331C865.474 103.705 858.237 103.765 855.2 100.34C852.164 96.9148 854.189 91.0359 852.285 87.0101C850.441 83.1241 844.154 80.0891 843.514 75.73C842.874 71.3709 848.087 67.0947 848.75 62.9382C849.431 58.6335 845.801 53.3141 847.721 49.4046C849.641 45.4951 856.678 43.9367 859.736 40.5851C862.795 37.2335 862.73 31.0231 866.732 28.4193C870.734 25.8155 877.585 27.5519 882.274 25.9149C886.806 24.3342 890.347 18.9444 895.432 18.3957C900.516 17.8469 905.511 22.3156 910.359 22.884C915.374 23.4681 921.579 20.3565 926.14 22.008C930.701 23.6595 932.518 29.681 936.435 32.3079C940.351 34.9348 947.588 34.874 950.625 38.2993C953.661 41.7246 951.63 47.6042 953.54 51.6293C955.384 55.5152 961.671 58.5503 962.311 62.9094Z" fill="#00214E"/>
<ellipse rx="11.0474" ry="9.51705" transform="matrix(0.994227 -0.107296 0.145284 0.98939 873.212 98.25)" fill="#E18477"/>
<ellipse rx="10.3976" ry="8.95723" transform="matrix(0.994227 -0.107296 0.145284 0.98939 876.917 97.2875)" fill="#A76962"/>
<path d="M987.633 155.211C948.629 188.381 888.353 194.654 841.224 170.448L870.808 154.421C872.216 153.656 873.55 152.794 874.794 151.842C875.171 151.554 875.547 151.254 875.903 150.946C878.995 148.332 881.392 145.177 882.932 141.696C884.903 137.236 885.077 132.524 884.425 127.812C883.959 124.644 883.294 121.497 882.789 118.328C882.506 116.576 882.226 114.823 881.951 113.067L883.324 113.482L886.894 114.638L888.485 114.697L906.883 115.379L927.421 116.144L930.631 133.803L932.192 142.378L932.219 142.561L940.437 144.443L987.633 155.211Z" fill="#E18477"/>
<path d="M931.821 140.387L930.839 140.583C921.223 142.363 911.18 140.433 903.371 135.305L883.126 119.816C882.832 118.216 882.907 119.221 882.652 117.617C882.368 115.865 882.089 114.112 881.814 112.356L883.187 112.77L886.766 113.898L888.356 113.957L906.755 114.638L927.292 115.404L930.502 133.063L931.821 140.387Z" fill="#A76962"/>
<path d="M873.699 78.7292C873.27 79.3382 872.977 80.467 872.749 82.2696C872.227 86.4502 881.039 112.58 883.128 120.322L908.843 132.66C917.399 136.821 927.653 137.554 936.894 134.663C940.573 133.484 942.904 132.726 944.233 129.933C946.809 124.591 952.426 106.66 951.189 94.5724C950.837 91.1444 949.975 85.9483 947.092 83.2998C945.69 82.0164 945.072 82.055 945.211 80.0087C945.35 77.9625 945.689 75.754 945.921 73.6246C946.56 67.7433 946.794 61.1518 943.819 55.6887C942.234 52.765 939.929 50.9657 936.786 49.3187C933.429 47.5541 932.184 47.7898 930.811 51.0888C929.886 53.3268 928.906 55.2331 926.581 56.6993C923.209 58.8131 920.577 57.9606 916.943 58.1108C913.76 58.2461 914.403 60.298 914.004 62.3666C913.596 64.537 912.315 66.5165 910.383 67.9621C906.779 70.568 901.736 71.1364 897.47 69.4176C896.885 69.1457 896.214 69.0425 895.556 69.1233C893.413 69.4559 893.642 71.6875 893.385 73.3357C892.833 76.7712 888.574 79.0989 884.509 79.2674C877.883 79.5549 875.084 76.6723 873.699 78.7292Z" fill="#E18477"/>
<path d="M927.01 83.042C927.503 85.1746 928.249 87.2584 929.236 89.2612C930.151 91.0248 931.301 92.0598 932.825 93.499C933.348 93.972 933.816 94.4866 934.225 95.0358C936.414 98.1418 934.682 102.037 930.366 102.502L927.698 102.79" stroke="#00214E"/>
<path d="M911.916 110.008C915.459 112.643 919.993 114.09 924.683 114.082" stroke="#00214E"/>
<path d="M895.287 80.2087C901.113 78.5045 907.243 77.6924 913.397 77.8098" stroke="#00214E"/>
<path d="M933.448 76.1523C937.034 75.0154 940.809 74.3782 944.63 74.2647" stroke="#00214E"/>
<path d="M987.633 155.211C948.629 188.381 888.353 194.654 841.224 170.448L870.808 154.421C872.217 153.656 873.55 152.794 874.794 151.842C875.171 151.554 875.548 151.254 875.903 150.946C892.481 158.587 914.107 162.2 931.051 153.333C935.084 151.21 938.618 148.105 940.438 144.409L987.633 155.211Z" fill="url(#paint15_linear_2_129)"/>
<path d="M918.513 99.8205C917.62 100.352 917.308 101.36 917.775 102.202C918.242 103.043 919.352 103.471 920.396 103.213" stroke="#00214E"/>
<path d="M905.545 84.4526C909.493 84.0266 910.256 89.222 906.312 89.6758L906.137 89.6946C902.192 90.0922 901.433 84.9245 905.371 84.4714L905.545 84.4526Z" fill="#00214E"/>
<path d="M937.97 80.5819C941.627 80.1873 942.335 85.0061 938.682 85.4284L938.514 85.4465C934.853 85.8135 934.15 81.0224 937.802 80.6L937.97 80.5819Z" fill="#00214E"/>
<ellipse rx="3.90559" ry="3.36456" transform="matrix(0.994227 -0.107296 0.145284 0.98939 873.105 97.6989)" fill="#F2D4CF"/>
<path d="M866.923 106.508C866.672 106.501 866.421 106.489 866.168 106.465C861.368 106.049 857.699 102.608 857.647 98.4722C857.594 94.3366 861.175 90.8275 865.964 90.3222V90.3222C866.239 90.2917 866.502 90.4272 866.6 90.6496C866.699 90.872 866.606 91.1232 866.376 91.2567C863.721 92.8844 862.229 95.5685 862.428 98.3617C862.626 101.155 864.486 103.664 867.352 105.004C867.728 105.175 867.921 105.544 867.82 105.899C867.719 106.254 867.349 106.505 866.923 106.508V106.508Z" fill="#F2D4CF"/>
<path d="M864.483 91.3709C865.758 90.7889 867.242 90.6428 868.637 90.9621C870.124 91.3469 871.351 92.2558 872.01 93.462C872.507 94.3103 872.803 95.2344 872.882 96.1812" stroke="#F2D4CF" stroke-width="2"/>
</g>
<ellipse rx="41.0626" ry="37.3977" transform="matrix(-0.987492 0.157669 0.212301 0.977204 617.38 347.48)" fill="url(#paint16_linear_2_129)"/>
<mask id="mask10_2_129" style="mask-type:alpha" maskUnits="userSpaceOnUse" x="547" y="286" width="120" height="56">
<rect width="112.638" height="37.8411" transform="matrix(-0.987492 0.157669 0.212301 0.977204 658.655 286.338)" fill="#C4C4C4"/>
</mask>
<g mask="url(#mask10_2_129)">
<path d="M590.203 378.074C614.862 389.522 644.724 384.631 662.738 366.194L645.708 362.094C644.897 361.898 644.104 361.643 643.337 361.331C643.104 361.237 642.87 361.137 642.644 361.029C640.692 360.13 638.972 358.866 637.601 357.324C636.559 356.137 635.749 354.803 635.205 353.378C634.842 352.455 634.555 351.511 634.345 350.553C633.986 348.901 633.727 347.232 633.386 345.574C633.2 344.657 633.012 343.74 632.821 342.821L632.243 343.213L630.745 344.256L629.998 344.498L621.359 347.294L611.716 350.418L613.423 359.711L613.981 362.748L614.251 364.224L614.271 364.313L610.701 366.354L590.203 378.074Z" fill="#F2A196"/>
<path d="M583.371 319.298C583.437 319.464 583.508 319.626 583.586 319.787C583.995 320.61 584.532 321.379 585.18 322.07L585.215 322.106C585.46 322.366 585.718 322.624 585.993 322.879C586.715 323.531 587.482 324.142 588.288 324.709L588.768 325.042C589.092 325.268 589.419 325.488 589.744 325.705C589.533 325.699 589.322 325.721 589.119 325.772C589.043 325.79 588.97 325.814 588.899 325.843C587.918 326.197 587.229 327.195 587.168 328.212C587.166 328.278 587.164 328.347 587.165 328.413C587.193 329.748 588.051 330.962 589.01 332.004C590.695 333.852 592.779 334.927 594.739 336.452C596.206 337.587 597.2 339.048 598.761 340.108L598.877 340.188L598.969 340.245C603.053 342.858 608.527 342.758 613.256 343.414C614.967 343.655 633.313 345.329 633.524 346.299C633.478 346.088 634.85 344.294 636.592 342.1C642.854 334.288 643.174 323.712 636.701 315.718C629.741 307.115 617.111 302.199 605.77 300.68C602.224 300.206 598.301 300.133 595.449 302.029C592.598 303.925 591.965 308.495 595.039 310.186C593.15 309.327 590.988 309.118 588.965 309.599C587.089 310.009 585.456 311.021 584.37 312.446C583.764 313.247 583.331 314.145 583.094 315.095C582.997 315.488 582.932 315.888 582.9 316.291C582.822 317.308 582.983 318.332 583.371 319.298Z" fill="#F2D4CF"/>
<path d="M583.371 319.298C583.437 319.464 583.508 319.626 583.586 319.787C583.995 320.61 584.532 321.379 585.18 322.07L585.215 322.106C585.46 322.366 585.718 322.624 585.993 322.879C586.715 323.531 587.482 324.142 588.288 324.71L588.768 325.042C589.092 325.269 589.419 325.488 589.744 325.705C589.533 325.699 589.322 325.721 589.119 325.772C589.043 325.79 588.97 325.814 588.899 325.843C587.918 326.197 587.229 327.195 587.168 328.212C587.166 328.278 587.164 328.347 587.165 328.413C587.193 329.748 588.051 330.962 589.01 332.004C590.695 333.852 592.779 334.927 594.739 336.452C596.206 337.587 597.2 339.048 598.761 340.108L598.877 340.188L598.969 340.245C599.919 338.477 600.341 336.51 600.196 334.535C599.876 330.449 598.596 326.145 597.867 322.074C597.612 320.653 597.339 318.954 596.544 317.694C596.335 317.384 596.082 317.099 595.793 316.845C595.017 316.082 594.168 315.38 593.258 314.748C592.233 314.07 591.033 313.643 589.778 313.51C589.103 313.449 588.423 313.445 587.749 313.499C587.027 313.55 586.315 313.677 585.629 313.877C584.714 314.148 583.864 314.564 583.117 315.106C583.02 315.5 582.955 315.9 582.922 316.303C582.839 317.315 582.992 318.335 583.371 319.298Z" fill="#DAAEA8"/>
<ellipse rx="5.5183" ry="5.02577" transform="matrix(-0.987492 0.157669 0.212301 0.977204 634.218 334.226)" fill="#F2A196"/>
<ellipse rx="4.9405" ry="4.49954" transform="matrix(-0.987492 0.157669 0.212301 0.977204 632.487 334.502)" fill="#E88870"/>
<path d="M631.412 329.891L633.579 346.583L614.718 361.199C611.889 362.713 608.203 362.032 606.197 359.624C601.904 354.457 595.047 346.312 594.972 342.883C594.867 337.819 597.054 335.676 597.054 335.676L594.736 330.086C593.864 327.98 592.855 325.798 592.978 323.521C593.118 320.913 594.982 319.51 596.3 317.365C601.984 321.91 610.093 323.697 617.266 325.675C620.97 326.71 631.412 329.891 631.412 329.891Z" fill="#F2A196"/>
<path d="M607.214 332.29C607.261 332.384 605.199 343.409 605.199 343.409L611.004 342.745" stroke="#00214E"/>
<path d="M620.396 328.114C617.309 328.035 614.24 328.446 611.33 329.325" stroke="#00214E"/>
<path d="M601.475 331.168C599.559 331.079 597.646 331.262 595.805 331.711" stroke="#00214E"/>
<path d="M615.705 332.291C613.753 332.618 614.338 335.311 616.296 335.013L616.386 334.998C618.338 334.672 617.753 331.979 615.795 332.277L615.705 332.291Z" fill="#00214E"/>
<path d="M599.554 334.679C597.74 334.969 598.286 337.482 600.103 337.204L600.183 337.191C602 336.901 601.454 334.387 599.634 334.666L599.554 334.679Z" fill="#00214E"/>
</g>
<mask id="mask11_2_129" style="mask-type:alpha" maskUnits="userSpaceOnUse" x="576" y="310" width="83" height="75">
<path d="M577.324 353.876C581.642 373.747 603.047 387.076 625.213 383.537C647.38 379.997 661.752 360.956 657.435 341.085C653.118 321.213 631.713 307.884 609.546 311.424C587.38 314.963 573.007 334.004 577.324 353.876Z" fill="#C4C4C4" stroke="black"/>
</mask>
<g mask="url(#mask11_2_129)">
<path d="M590.203 378.074C614.862 389.522 644.724 384.631 662.738 366.194L645.708 362.094C644.897 361.898 644.104 361.643 643.337 361.331C643.104 361.237 642.87 361.137 642.644 361.029C640.692 360.13 638.972 358.866 637.601 357.324C636.559 356.137 635.749 354.803 635.205 353.378C634.842 352.455 634.555 351.511 634.345 350.553C633.986 348.901 633.727 347.232 633.386 345.574C633.2 344.657 633.012 343.74 632.821 342.821L632.243 343.213L630.745 344.256L629.998 344.498L621.359 347.294L611.716 350.418L613.423 359.711L613.981 362.748L614.251 364.224L614.271 364.313L610.701 366.354L590.203 378.074Z" fill="#F2A196"/>
<path d="M614.16 363.622C615.299 363.617 616.398 363.278 617.29 362.656L633.346 345.512C633.227 344.855 633.395 345.537 633.263 344.882C633.077 343.965 632.888 343.048 632.698 342.13L632.119 342.521L630.621 343.564L629.875 343.806L621.235 346.602L611.593 349.726L613.3 359.019L613.857 362.057L614.128 363.532L614.148 363.627L614.16 363.622Z" fill="#E88870"/>
<path d="M590.203 378.074C614.861 389.522 644.724 384.631 662.737 366.194L645.708 362.094C644.897 361.898 644.104 361.643 643.337 361.331C643.104 361.237 642.87 361.137 642.644 361.029C636.147 367.076 626.508 371.775 616.812 369.584C614.502 369.056 612.249 367.969 610.705 366.356L590.203 378.074Z" fill="#FF2609"/>
<path d="M583.371 319.298C583.437 319.464 583.508 319.626 583.586 319.787C583.995 320.61 584.532 321.379 585.18 322.07L585.215 322.106C585.46 322.366 585.718 322.624 585.993 322.879C586.715 323.531 587.482 324.142 588.288 324.709L588.768 325.042C589.092 325.268 589.419 325.488 589.744 325.705C589.533 325.699 589.322 325.721 589.119 325.772C589.043 325.79 588.97 325.814 588.899 325.843C587.918 326.197 587.229 327.195 587.168 328.212C587.166 328.278 587.164 328.347 587.165 328.413C587.193 329.748 588.051 330.962 589.01 332.004C590.695 333.852 592.779 334.927 594.739 336.452C596.206 337.587 597.2 339.048 598.761 340.108L598.877 340.188L598.969 340.245C603.053 342.858 608.527 342.758 613.256 343.414C614.967 343.655 633.313 345.329 633.524 346.299C633.478 346.088 634.85 344.294 636.592 342.1C642.854 334.288 643.174 323.712 636.701 315.718C629.741 307.115 617.111 302.199 605.77 300.68C602.224 300.206 598.301 300.133 595.449 302.029C592.598 303.925 591.965 308.495 595.039 310.186C593.15 309.327 590.988 309.118 588.965 309.599C587.089 310.009 585.456 311.021 584.37 312.446C583.764 313.247 583.331 314.145 583.094 315.095C582.997 315.488 582.932 315.888 582.9 316.291C582.822 317.308 582.983 318.332 583.371 319.298Z" fill="#F2D4CF"/>
<path d="M583.371 319.298C583.437 319.464 583.508 319.626 583.586 319.787C583.995 320.61 584.532 321.379 585.18 322.07L585.215 322.106C585.46 322.366 585.718 322.624 585.993 322.879C586.715 323.531 587.482 324.142 588.288 324.709L588.768 325.042C589.092 325.268 589.419 325.488 589.744 325.705C589.533 325.699 589.322 325.721 589.119 325.772C589.043 325.79 588.97 325.814 588.899 325.843C587.918 326.197 587.229 327.195 587.168 328.212C587.166 328.278 587.164 328.347 587.165 328.413C587.193 329.748 588.051 330.962 589.01 332.004C590.695 333.852 592.779 334.927 594.739 336.452C596.206 337.587 597.2 339.048 598.761 340.108L598.877 340.188L598.969 340.245C599.919 338.477 600.341 336.51 600.196 334.535C599.876 330.449 598.596 326.145 597.867 322.074C597.612 320.653 597.339 318.954 596.544 317.694C596.335 317.384 596.082 317.099 595.793 316.845C595.017 316.082 594.168 315.38 593.258 314.748C592.233 314.07 591.033 313.643 589.778 313.51C589.103 313.449 588.423 313.445 587.749 313.499C587.027 313.55 586.315 313.677 585.629 313.877C584.714 314.148 583.864 314.564 583.117 315.106C583.02 315.5 582.955 315.9 582.922 316.303C582.839 317.315 582.992 318.335 583.371 319.298Z" fill="#DAAEA8"/>
<ellipse rx="5.5183" ry="5.02577" transform="matrix(-0.987492 0.157669 0.212301 0.977204 634.218 334.226)" fill="#F2A196"/>
<ellipse rx="4.9405" ry="4.49954" transform="matrix(-0.987492 0.157669 0.212301 0.977204 632.487 334.502)" fill="#E88870"/>
<path d="M631.412 329.891L633.579 346.583L614.718 361.199C611.889 362.713 608.204 362.032 606.198 359.624C601.904 354.457 595.047 346.312 594.972 342.883C594.867 337.819 597.055 335.676 597.055 335.676L594.736 330.086C593.864 327.98 592.855 325.798 592.978 323.521C593.118 320.913 594.982 319.51 596.3 317.365C601.984 321.91 610.093 323.697 617.266 325.675C620.97 326.71 631.412 329.891 631.412 329.891Z" fill="#F2A196"/>
<path d="M607.214 332.29C607.261 332.384 605.199 343.409 605.199 343.409L611.004 342.745" stroke="#00214E"/>
<path d="M620.396 328.114C617.309 328.035 614.24 328.446 611.33 329.325" stroke="#00214E"/>
<path d="M601.475 331.168C599.559 331.079 597.646 331.262 595.805 331.711" stroke="#00214E"/>
<path d="M617.524 344.693C617.408 344.581 617.246 344.516 617.077 344.515C616.908 344.514 616.747 344.575 616.633 344.686C616.058 345.214 615.035 346.304 613.371 346.889C611.104 347.691 608.874 347.165 608.503 347.792C608.294 348.145 608.713 348.47 609.459 348.835C611.022 349.538 612.823 349.648 614.454 349.141C616.64 348.394 617.83 345.753 617.648 344.912C617.627 344.831 617.585 344.756 617.524 344.693V344.693Z" fill="white"/>
<path d="M615.705 332.291C613.753 332.618 614.338 335.311 616.296 335.013L616.386 334.998C618.338 334.672 617.753 331.979 615.795 332.277L615.705 332.291Z" fill="#00214E"/>
<path d="M599.554 334.679C597.74 334.969 598.286 337.482 600.103 337.204L600.183 337.191C602 336.901 601.454 334.387 599.634 334.666L599.554 334.679Z" fill="#00214E"/>
</g>
<defs>
<filter id="filter0_i_2_129" x="828.298" y="43.1822" width="164.77" height="141.254" filterUnits="userSpaceOnUse" color-interpolation-filters="sRGB">
<feFlood flood-opacity="0" result="BackgroundImageFix"/>
<feBlend mode="normal" in="SourceGraphic" in2="BackgroundImageFix" result="shape"/>
<feColorMatrix in="SourceAlpha" type="matrix" values="0 0 0 0 0 0 0 0 0 0 0 0 0 0 0 0 0 0 127 0" result="hardAlpha"/>
<feOffset/>
<feGaussianBlur stdDeviation="12"/>
<feComposite in2="hardAlpha" operator="arithmetic" k2="-1" k3="1"/>
<feColorMatrix type="matrix" values="0 0 0 0 0 0 0 0 0 0 0 0 0 0 0 0 0 0 0.11 0"/>
<feBlend mode="normal" in2="shape" result="effect1_innerShadow_2_129"/>
</filter>
<linearGradient id="paint0_linear_2_129" x1="80.8909" y1="373.73" x2="188.728" y2="291.574" gradientUnits="userSpaceOnUse">
<stop stop-color="#16243F"/>
<stop offset="1" stop-color="#6878B1"/>
</linearGradient>
<linearGradient id="paint1_linear_2_129" x1="80.2745" y1="256.483" x2="121.347" y2="218.939" gradientUnits="userSpaceOnUse">
<stop stop-color="#16243F"/>
<stop offset="1" stop-color="#6878B1"/>
</linearGradient>
<linearGradient id="paint2_linear_2_129" x1="80.891" y1="373.73" x2="188.728" y2="291.574" gradientUnits="userSpaceOnUse">
<stop stop-color="#16243F"/>
<stop offset="1" stop-color="#6878B1"/>
</linearGradient>
<linearGradient id="paint3_linear_2_129" x1="80.2745" y1="256.483" x2="121.347" y2="218.939" gradientUnits="userSpaceOnUse">
<stop stop-color="#16243F"/>
<stop offset="1" stop-color="#6878B1"/>
</linearGradient>
<linearGradient id="paint4_linear_2_129" x1="31.2088" y1="324.869" x2="152.549" y2="341.82" gradientUnits="userSpaceOnUse">
<stop stop-color="#315676"/>
<stop offset="1" stop-color="#E1B9E0"/>
</linearGradient>
<linearGradient id="paint5_linear_2_129" x1="423.332" y1="97.8039" x2="397.688" y2="60.5349" gradientUnits="userSpaceOnUse">
<stop offset="0.29" stop-color="#00214E"/>
<stop offset="0.51" stop-color="#6878B1"/>
<stop offset="0.79" stop-color="#00214E"/>
</linearGradient>
<linearGradient id="paint6_linear_2_129" x1="423.332" y1="97.8039" x2="397.688" y2="60.5349" gradientUnits="userSpaceOnUse">
<stop offset="0.29" stop-color="#00214E"/>
<stop offset="0.51" stop-color="#6878B1"/>
<stop offset="0.79" stop-color="#00214E"/>
</linearGradient>
<linearGradient id="paint7_linear_2_129" x1="0" y1="24.8557" x2="28.8129" y2="24.8557" gradientUnits="userSpaceOnUse">
<stop stop-color="#16243F"/>
<stop offset="1" stop-color="#6878B1"/>
</linearGradient>
<linearGradient id="paint8_linear_2_129" x1="1338.32" y1="157.757" x2="1313.15" y2="91.1126" gradientUnits="userSpaceOnUse">
<stop stop-color="#16243F"/>
<stop offset="1" stop-color="#6878B1"/>
</linearGradient>
<linearGradient id="paint9_linear_2_129" x1="1363.3" y1="116.97" x2="1350.07" y2="87.9181" gradientUnits="userSpaceOnUse">
<stop stop-color="#16243F"/>
<stop offset="1" stop-color="#6878B1"/>
</linearGradient>
<linearGradient id="paint10_linear_2_129" x1="0" y1="24.8557" x2="28.8129" y2="24.8557" gradientUnits="userSpaceOnUse">
<stop stop-color="#16243F"/>
<stop offset="1" stop-color="#6878B1"/>
</linearGradient>
<linearGradient id="paint11_linear_2_129" x1="1338.32" y1="157.757" x2="1313.15" y2="91.1126" gradientUnits="userSpaceOnUse">
<stop stop-color="#16243F"/>
<stop offset="1" stop-color="#6878B1"/>
</linearGradient>
<linearGradient id="paint12_linear_2_129" x1="1363.3" y1="116.97" x2="1350.07" y2="87.9181" gradientUnits="userSpaceOnUse">
<stop stop-color="#16243F"/>
<stop offset="1" stop-color="#6878B1"/>
</linearGradient>
<linearGradient id="paint13_linear_2_129" x1="900.001" y1="329.265" x2="979.249" y2="346.044" gradientUnits="userSpaceOnUse">
<stop stop-color="#16243F"/>
<stop offset="1" stop-color="#6878B1"/>
</linearGradient>
<radialGradient id="paint14_radial_2_129" cx="0" cy="0" r="1" gradientUnits="userSpaceOnUse" gradientTransform="translate(82.2058 70.8181) rotate(90) scale(70.8181 82.2058)">
<stop offset="1" stop-color="#2976BD"/>
</radialGradient>
<linearGradient id="paint15_linear_2_129" x1="844.422" y1="192.226" x2="989.931" y2="170.859" gradientUnits="userSpaceOnUse">
<stop stop-color="#315676"/>
<stop offset="1" stop-color="#E1B9E0"/>
</linearGradient>
<linearGradient id="paint16_linear_2_129" x1="41.2249" y1="93.4202" x2="39.6093" y2="-2.37067" gradientUnits="userSpaceOnUse">
<stop stop-color="#B3B3B3"/>
<stop offset="1" stop-color="white"/>
</linearGradient>
</defs>
</svg>
